<svg width="328" height="532" viewBox="0 0 428 632" fill="none" xmlns="http://www.w3.org/2000/svg">
<path d="M109 109H184C195.046 109 204 117.954 204 129V428H109V109Z" fill="#1E2758"/>
<path d="M0 95V20C0 8.9543 8.95431 -3.69549e-06 20 -3.69549e-06H408C419.046 -3.69549e-06 428 8.9543 428 20V95H0Z" fill="url(#paint0_linear_202_11)" fill-opacity="0.79"/>
<path d="M109 523V428H428V503C428 514.046 419.046 523 408 523H109Z" fill="#1E2758"/>
<path d="M333 95H428V428H333V95Z" fill="url(#paint1_linear_202_11)"/>
<rect y="95" width="95" height="442" fill="#E2CA4D" fill-opacity="0.79"/>
<path d="M20 632C8.9543 632 0 623.046 0 612L0 537H428V612C428 623.046 419.046 632 408 632H20Z" fill="#E2CA4D" fill-opacity="0.79"/>
<defs>
<linearGradient id="paint0_linear_202_11" x1="0" y1="47.5" x2="428" y2="47.5" gradientUnits="userSpaceOnUse">
<stop stop-color="#E2CA4D"/>
<stop offset="1" stop-color="#E2CA4D" stop-opacity="0.5"/>
</linearGradient>
<linearGradient id="paint1_linear_202_11" x1="380" y1="95" x2="380.5" y2="428" gradientUnits="userSpaceOnUse">
<stop stop-color="#E2CA4D" stop-opacity="0.4"/>
<stop offset="0.713542" stop-color="#1E2758"/>
<stop offset="1" stop-color="#1E2758"/>
</linearGradient>
</defs>
</svg>
